<svg xmlns="http://www.w3.org/2000/svg" viewBox="0 0 90.7 95"><defs><style>.cls-1{fill:#7abcff;}</style></defs><title>ic_dob</title><g id="Layer_2" data-name="Layer 2"><g id="Layer_1-2" data-name="Layer 1"><g id="Layer_1-3" data-name="Layer 1"><path class="cls-1" d="M79.5,9.6H72.9V6.1a6.1,6.1,0,0,0-12.2,0V9.6H29.9V6.1a6.1,6.1,0,1,0-12.2,0V9.6H11.1A11.14,11.14,0,0,0,0,20.7v5.7H90.7V20.7A11.16,11.16,0,0,0,79.5,9.6Z"/><path class="cls-1" d="M0,83.9A11.14,11.14,0,0,0,11.1,95H79.6A11.14,11.14,0,0,0,90.7,83.9V33.4H0ZM59.5,52.3a1.9,1.9,0,0,1,1.9-1.9h9.1a1.9,1.9,0,0,1,1.9,1.9v6a1.9,1.9,0,0,1-1.9,1.9H61.4a1.9,1.9,0,0,1-1.9-1.9Zm0,17.8a1.9,1.9,0,0,1,1.9-1.9h9.1a1.9,1.9,0,0,1,1.9,1.9v6A1.9,1.9,0,0,1,70.5,78H61.4a1.9,1.9,0,0,1-1.9-1.9ZM38.8,52.3a1.9,1.9,0,0,1,1.9-1.9h9.1a1.9,1.9,0,0,1,1.9,1.9v6a1.9,1.9,0,0,1-1.9,1.9H40.7a1.9,1.9,0,0,1-1.9-1.9Zm0,17.8a1.9,1.9,0,0,1,1.9-1.9h9.1a1.9,1.9,0,0,1,1.9,1.9v6A1.9,1.9,0,0,1,49.8,78H40.7a1.9,1.9,0,0,1-1.9-1.9ZM18.2,52.3a1.9,1.9,0,0,1,1.9-1.9h9.1a1.9,1.9,0,0,1,1.9,1.9v6a1.9,1.9,0,0,1-1.9,1.9H20.1a1.9,1.9,0,0,1-1.9-1.9Zm0,17.8a1.9,1.9,0,0,1,1.9-1.9h9.1a1.9,1.9,0,0,1,1.9,1.9v6A1.9,1.9,0,0,1,29.2,78H20.1a1.9,1.9,0,0,1-1.9-1.9Z"/></g></g></g></svg>