<svg xmlns="http://www.w3.org/2000/svg" viewBox="0 0 122.58 133.94"><defs><style>.cls-1{fill:#8afede;}.cls-2{fill:#7abcff;}.cls-3{font-size:59.79px;font-family:TheRambler, The Rambler;}.cls-4{letter-spacing:-0.02em;}.cls-5{letter-spacing:0.04em;}.cls-6{letter-spacing:-0.01em;}</style></defs><title>ic_logo</title><g id="Layer_2" data-name="Layer 2"><g id="Layer_1-2" data-name="Layer 1"><g id="Group_454" data-name="Group 454"><path id="Subtraction_3" data-name="Subtraction 3" class="cls-1" d="M61.21,57.3A12.25,12.25,0,0,1,49,45.1V12.2a12.2,12.2,0,1,1,24.4,0h0V45.1A12.17,12.17,0,0,1,61.25,57.3Zm0-50h0a16.26,16.26,0,0,0-4.7,10.3c-.1,3.8,1.5,7.5,4.7,10.9V49.2a15.08,15.08,0,0,0,4.7-9.7c.2-3.8-1.4-7.4-4.7-11Z"/><path id="Rectangle_544" data-name="Rectangle 544" class="cls-2" d="M86.86,11h0a8.5,8.5,0,0,1,8.5,8.48V37.8a8.48,8.48,0,0,1-8.48,8.5h0a8.49,8.49,0,0,1-8.5-8.48V19.5A8.51,8.51,0,0,1,86.84,11Z"/><path id="Rectangle_545" data-name="Rectangle 545" class="cls-2" d="M35.71,11h0a8.5,8.5,0,0,1,8.5,8.48V37.8a8.48,8.48,0,0,1-8.48,8.5h0a8.49,8.49,0,0,1-8.5-8.48V19.5A8.44,8.44,0,0,1,35.57,11Z"/></g><text class="cls-3" transform="translate(0 104.05)">I<tspan class="cls-4" x="6.66" y="0">c</tspan><tspan x="19.5" y="0">e</tspan><tspan class="cls-5" x="31.21" y="0">b</tspan><tspan x="46.85" y="0">r</tspan><tspan class="cls-6" x="60.08" y="0">e</tspan><tspan x="70.99" y="0">aker</tspan></text></g></g></svg>