<svg xmlns="http://www.w3.org/2000/svg" viewBox="0 0 30 19"><defs><style>.cls-1{fill:#7abcff;}</style></defs><title>ic_name</title><g id="Layer_2" data-name="Layer 2"><g id="Layer_1-2" data-name="Layer 1"><circle class="cls-1" cx="7" cy="4" r="4"/><path class="cls-1" d="M9,9H5a5,5,0,0,0-5,5v4a.94.94,0,0,0,1,1H13a.94.94,0,0,0,1-1V14A5,5,0,0,0,9,9Z"/><path class="cls-1" d="M29,8H17a.94.94,0,0,1-1-1,.94.94,0,0,1,1-1H29a.94.94,0,0,1,1,1A.94.94,0,0,1,29,8Z"/><path class="cls-1" d="M29,12H17a.94.94,0,0,1-1-1,.94.94,0,0,1,1-1H29a.94.94,0,0,1,1,1A.94.94,0,0,1,29,12Z"/><path class="cls-1" d="M23,16H17a1,1,0,0,1,0-2h6a1,1,0,0,1,0,2Z"/></g></g></svg>