<?xml version="1.0" encoding="utf-8"?>
<!-- Generator: Adobe Illustrator 24.0.2, SVG Export Plug-In . SVG Version: 6.00 Build 0)  -->
<svg version="1.1" id="Layer_1" xmlns="http://www.w3.org/2000/svg" xmlns:xlink="http://www.w3.org/1999/xlink" x="0px" y="0px"
	 viewBox="0 0 57.1 69.1" style="enable-background:new 0 0 57.1 69.1;" xml:space="preserve">
<style type="text/css">
	.st0{fill:#7ABCFF;}
</style>
<title>ic_pass</title>
<g id="Layer_2_1_">
	<g id="Layer_1-2">
		<path class="st0" d="M51.2,30H51v-7.8C50.9,9.9,41,0,28.7,0h-0.9C15.7,0.4,6.4,10.7,6.4,22.8V30H5.9C2.7,30,0,32.6,0,35.8
			c0,0,0,0.1,0,0.1v27.3c0,3.2,2.6,5.9,5.8,5.9c0,0,0.1,0,0.1,0h45.3c3.2,0,5.9-2.6,5.9-5.8c0,0,0-0.1,0-0.1V35.9
			c0-3.2-2.6-5.9-5.8-5.9C51.3,30,51.2,30,51.2,30z M32.9,56.4c0.1,0.6-0.3,1.2-0.9,1.3c-0.1,0-0.1,0-0.2,0h-6.6
			c-0.6,0-1.1-0.5-1.1-1.1c0-0.1,0-0.1,0-0.2l1.3-6.2c-2.1-1.7-2.3-4.8-0.6-6.9c0.8-0.9,1.9-1.6,3.1-1.7h0.6c2.7,0,4.9,2.2,4.9,4.9
			c0,1.5-0.7,2.9-1.8,3.8L32.9,56.4z M41.2,30H16.1v-7.4c0-6.5,4.8-12.3,11.3-12.9c0.4,0,0.8-0.1,1.2-0.1c7,0,12.6,5.6,12.6,12.6V30
			z"/>
	</g>
</g>
</svg>
