<?xml version="1.0" encoding="utf-8"?>
<!-- Generator: Adobe Illustrator 24.0.2, SVG Export Plug-In . SVG Version: 6.00 Build 0)  -->
<svg version="1.1" id="Layer_1" xmlns="http://www.w3.org/2000/svg" xmlns:xlink="http://www.w3.org/1999/xlink" x="0px" y="0px"
	 viewBox="0 0 84.7 95" style="enable-background:new 0 0 84.7 95;" xml:space="preserve">
<style type="text/css">
	.st0{fill:#7ABCFF;}
</style>
<title>ic_username</title>
<g id="Layer_2_1_">
	<g id="Layer_1-2">
		<g id="Layer_1-3">
			<path class="st0" d="M67.3,49.9c-0.9-7.3-6-13.4-13-15.6c-7.2,4.8-16.6,4.8-23.8,0c-7,2.2-12.2,8.3-13.1,15.6l-0.5,6.8h50.9
				L67.3,49.9z"/>
			<circle class="st0" cx="42.4" cy="16.1" r="16.1"/>
			<path class="st0" d="M76.3,61.9H8.5c-4.7,0-8.5,3.8-8.5,8.5c0,0,0,0,0,0v16.1C0,91.2,3.8,95,8.5,95c0,0,0,0,0,0h67.7
				c4.7,0,8.5-3.8,8.5-8.5c0,0,0,0,0,0V70.3C84.7,65.7,80.9,61.9,76.3,61.9z M26.1,82.2c1,1,1,2.7,0,3.7c-0.5,0.5-1.2,0.8-1.9,0.8
				c-0.7,0-1.4-0.3-1.8-0.8l-3.8-3.8l-3.8,3.8c-0.5,0.5-1.2,0.8-1.9,0.8c-0.7,0-1.4-0.3-1.9-0.8c-1-1-1-2.7,0-3.7l3.8-3.8L11,74.6
				c-1-1.1-0.9-2.7,0.2-3.7c1-0.9,2.5-0.9,3.5,0l3.8,3.8l3.8-3.8c1.1-1,2.7-0.9,3.7,0.2c0.9,1,0.9,2.5,0,3.5l-3.8,3.8L26.1,82.2z
				 M49.9,82.2c1,1,1,2.7,0,3.7c-0.5,0.5-1.2,0.8-1.9,0.8c-0.7,0-1.4-0.3-1.9-0.8l-3.7-3.7L38.6,86c-0.5,0.5-1.2,0.8-1.9,0.8
				c-0.7,0-1.4-0.3-1.9-0.8c-1-1-1-2.7,0-3.7l3.8-3.8l-3.8-3.8c-1.1-1-1.2-2.6-0.2-3.7c1-1.1,2.6-1.2,3.7-0.2
				c0.1,0.1,0.1,0.1,0.2,0.2l3.8,3.8l3.8-3.8c1-1.1,2.6-1.2,3.7-0.2c1.1,1,1.2,2.6,0.2,3.7c-0.1,0.1-0.1,0.1-0.2,0.2L46,78.5
				L49.9,82.2z M73.7,82.2c1,1,1,2.7,0,3.7c-0.5,0.5-1.2,0.8-1.9,0.8c-0.7,0-1.4-0.3-1.9-0.8l-3.8-3.8l-3.7,3.8
				c-0.5,0.5-1.2,0.8-1.9,0.8c-0.7,0-1.4-0.3-1.9-0.8c-1-1-1-2.7,0-3.7l3.8-3.8l-3.8-3.8c-1-1.1-0.9-2.7,0.2-3.7
				c1-0.9,2.5-0.9,3.5,0l3.8,3.8l3.8-3.8c1.1-1,2.7-0.9,3.7,0.2c0.9,1,0.9,2.5,0,3.5l-3.8,3.8L73.7,82.2z"/>
		</g>
	</g>
</g>
</svg>
